<svg width="1080" height="1080" viewBox="0 0 1080 1080" xmlns="http://www.w3.org/2000/svg">
  <defs>
    <clipPath id="squircle-clip">
      <path d="M 1079.000 539.500 L 1078.690 667.899 L 1077.761 718.009 L 1076.211 755.820 L 1074.039 787.247 L 1071.240 814.547 L 1067.810 838.860 L 1063.745 860.855 L 1059.039 880.963 L 1053.682 899.476 L 1047.666 916.604 L 1040.980 932.503 L 1033.609 947.292 L 1025.539 961.062 L 1016.750 973.887 L 1007.221 985.824 L 996.923 996.923 L 985.824 1007.221 L 973.887 1016.750 L 961.062 1025.539 L 947.292 1033.609 L 932.503 1040.980 L 916.604 1047.666 L 899.476 1053.682 L 880.963 1059.039 L 860.855 1063.745 L 838.860 1067.810 L 814.547 1071.240 L 787.247 1074.039 L 755.820 1076.211 L 718.009 1077.761 L 667.899 1078.690 L 539.500 1079.000 L 411.101 1078.690 L 360.991 1077.761 L 323.180 1076.211 L 291.753 1074.039 L 264.453 1071.240 L 240.140 1067.810 L 218.145 1063.745 L 198.037 1059.039 L 179.524 1053.682 L 162.396 1047.666 L 146.497 1040.980 L 131.708 1033.609 L 117.938 1025.539 L 105.113 1016.750 L 93.176 1007.221 L 82.077 996.923 L 71.779 985.824 L 62.250 973.887 L 53.461 961.062 L 45.391 947.292 L 38.020 932.503 L 31.334 916.604 L 25.318 899.476 L 19.961 880.963 L 15.255 860.855 L 11.190 838.860 L 7.760 814.547 L 4.961 787.247 L 2.789 755.820 L 1.239 718.009 L 0.310 667.899 L 0.000 539.500 L 0.310 411.101 L 1.239 360.991 L 2.789 323.180 L 4.961 291.753 L 7.760 264.453 L 11.190 240.140 L 15.255 218.145 L 19.961 198.037 L 25.318 179.524 L 31.334 162.396 L 38.020 146.497 L 45.391 131.708 L 53.461 117.938 L 62.250 105.113 L 71.779 93.176 L 82.077 82.077 L 93.176 71.779 L 105.113 62.250 L 117.938 53.461 L 131.708 45.391 L 146.497 38.020 L 162.396 31.334 L 179.524 25.318 L 198.037 19.961 L 218.145 15.255 L 240.140 11.190 L 264.453 7.760 L 291.753 4.961 L 323.180 2.789 L 360.991 1.239 L 411.101 0.310 L 539.500 0.000 L 667.899 0.310 L 718.009 1.239 L 755.820 2.789 L 787.247 4.961 L 814.547 7.760 L 838.860 11.190 L 860.855 15.255 L 880.963 19.961 L 899.476 25.318 L 916.604 31.334 L 932.503 38.020 L 947.292 45.391 L 961.062 53.461 L 973.887 62.250 L 985.824 71.779 L 996.923 82.077 L 1007.221 93.176 L 1016.750 105.113 L 1025.539 117.938 L 1033.609 131.708 L 1040.980 146.497 L 1047.666 162.396 L 1053.682 179.524 L 1059.039 198.037 L 1063.745 218.145 L 1067.810 240.140 L 1071.240 264.453 L 1074.039 291.753 L 1076.211 323.180 L 1077.761 360.991 L 1078.690 411.101 Z"/>
    </clipPath>
  </defs>
  <path d="M 1079.000 539.500 L 1078.690 667.899 L 1077.761 718.009 L 1076.211 755.820 L 1074.039 787.247 L 1071.240 814.547 L 1067.810 838.860 L 1063.745 860.855 L 1059.039 880.963 L 1053.682 899.476 L 1047.666 916.604 L 1040.980 932.503 L 1033.609 947.292 L 1025.539 961.062 L 1016.750 973.887 L 1007.221 985.824 L 996.923 996.923 L 985.824 1007.221 L 973.887 1016.750 L 961.062 1025.539 L 947.292 1033.609 L 932.503 1040.980 L 916.604 1047.666 L 899.476 1053.682 L 880.963 1059.039 L 860.855 1063.745 L 838.860 1067.810 L 814.547 1071.240 L 787.247 1074.039 L 755.820 1076.211 L 718.009 1077.761 L 667.899 1078.690 L 539.500 1079.000 L 411.101 1078.690 L 360.991 1077.761 L 323.180 1076.211 L 291.753 1074.039 L 264.453 1071.240 L 240.140 1067.810 L 218.145 1063.745 L 198.037 1059.039 L 179.524 1053.682 L 162.396 1047.666 L 146.497 1040.980 L 131.708 1033.609 L 117.938 1025.539 L 105.113 1016.750 L 93.176 1007.221 L 82.077 996.923 L 71.779 985.824 L 62.250 973.887 L 53.461 961.062 L 45.391 947.292 L 38.020 932.503 L 31.334 916.604 L 25.318 899.476 L 19.961 880.963 L 15.255 860.855 L 11.190 838.860 L 7.760 814.547 L 4.961 787.247 L 2.789 755.820 L 1.239 718.009 L 0.310 667.899 L 0.000 539.500 L 0.310 411.101 L 1.239 360.991 L 2.789 323.180 L 4.961 291.753 L 7.760 264.453 L 11.190 240.140 L 15.255 218.145 L 19.961 198.037 L 25.318 179.524 L 31.334 162.396 L 38.020 146.497 L 45.391 131.708 L 53.461 117.938 L 62.250 105.113 L 71.779 93.176 L 82.077 82.077 L 93.176 71.779 L 105.113 62.250 L 117.938 53.461 L 131.708 45.391 L 146.497 38.020 L 162.396 31.334 L 179.524 25.318 L 198.037 19.961 L 218.145 15.255 L 240.140 11.190 L 264.453 7.760 L 291.753 4.961 L 323.180 2.789 L 360.991 1.239 L 411.101 0.310 L 539.500 0.000 L 667.899 0.310 L 718.009 1.239 L 755.820 2.789 L 787.247 4.961 L 814.547 7.760 L 838.860 11.190 L 860.855 15.255 L 880.963 19.961 L 899.476 25.318 L 916.604 31.334 L 932.503 38.020 L 947.292 45.391 L 961.062 53.461 L 973.887 62.250 L 985.824 71.779 L 996.923 82.077 L 1007.221 93.176 L 1016.750 105.113 L 1025.539 117.938 L 1033.609 131.708 L 1040.980 146.497 L 1047.666 162.396 L 1053.682 179.524 L 1059.039 198.037 L 1063.745 218.145 L 1067.810 240.140 L 1071.240 264.453 L 1074.039 291.753 L 1076.211 323.180 L 1077.761 360.991 L 1078.690 411.101 Z" fill="#2562CD"/>
  <g clip-path="url(#squircle-clip)">
    <polygon points="486.000,0 1080.000,0 1080.000,594.000" fill="#60ADF7"/>
    <polygon points="0,594.000 594.000,1080.000 0,1080.000" fill="#1948B0"/>
  </g>
  <path d="M 129.600 259.200 L 280.800 259.200 L 399.600 853.200 L 507.600 259.200 L 572.400 259.200 L 680.400 853.200 L 799.200 259.200 L 950.400 259.200 L 761.400 885.600 L 604.800 885.600 L 540.000 567.000 L 475.200 885.600 L 318.600 885.600 Z" fill="#F0F0F0"/>
</svg>
