<svg xmlns="http://www.w3.org/2000/svg" width="1080" height="1080" viewBox="0 0 1080 1080">
  <defs>
    <linearGradient id="bg" x1="0" y1="0" x2="1" y2="1">
      <stop offset="0%" stop-color="#0F172A" />
      <stop offset="100%" stop-color="#2563EB" />
    </linearGradient>
    <linearGradient id="panel" x1="0" y1="0" x2="0" y2="1">
      <stop offset="0%" stop-color="#F8FAFF" />
      <stop offset="100%" stop-color="#DCEBFF" />
    </linearGradient>
  </defs>
  <rect x="60" y="60" width="960" height="960" rx="220" fill="url(#bg)" />
  <rect x="120" y="120" width="840" height="840" rx="180" fill="#13233D" opacity="0.35" />

  <g>
    <rect x="170" y="280" width="210" height="520" rx="60" fill="url(#panel)" />
    <rect x="215" y="330" width="120" height="60" rx="20" fill="#9CC4FF" />
    <rect x="200" y="420" width="150" height="70" rx="24" fill="#B9D6FF" />

    <rect x="435" y="250" width="210" height="550" rx="60" fill="url(#panel)" />
    <rect x="480" y="300" width="120" height="60" rx="20" fill="#9CC4FF" />
    <rect x="465" y="390" width="150" height="70" rx="24" fill="#B9D6FF" />

    <rect x="700" y="300" width="210" height="500" rx="60" fill="url(#panel)" />
    <rect x="745" y="350" width="120" height="60" rx="20" fill="#9CC4FF" />
    <rect x="730" y="440" width="150" height="70" rx="24" fill="#B9D6FF" />
  </g>

  <path d="M210 735 C360 830, 530 820, 690 740" fill="none" stroke="#E6F2FF" stroke-width="28" stroke-linecap="round" />
  <path d="M690 740 L650 725 L665 770 Z" fill="#E6F2FF" />
</svg>
